<svg id="Layer_1" enable-background="new 0 0 480 480" height="512" viewBox="0 0 480 480" width="512" xmlns="http://www.w3.org/2000/svg"><g><path d="m447.296 106h-349.296v-62c0-8.823 7.178-16 16-16h252c8.822 0 16 7.177 16 16v29.871c0 4.418 3.582 8 8 8s8-3.582 8-8v-29.871c0-17.645-14.355-32-32-32h-252c-17.645 0-32 14.355-32 32v70c0 4.418 3.582 8 8 8h357.296c9.211 0 16.704 7.493 16.704 16.704v296.592c0 9.21-7.493 16.704-16.704 16.704h-40.296v-42c0-4.418-3.582-8-8-8h-318c-4.418 0-8 3.582-8 8v42h-40.296c-9.211 0-16.704-7.493-16.704-16.704v-296.592c0-9.211 7.493-16.704 16.704-16.704 4.418 0 8-3.582 8-8s-3.582-8-8-8c-18.033 0-32.704 14.671-32.704 32.704v296.592c0 18.033 14.671 32.704 32.704 32.704h320.554c4.418 0 8-3.582 8-8s-3.582-8-8-8h-264.258v-34h302v42c0 4.418 3.582 8 8 8h48.296c18.033 0 32.704-14.671 32.704-32.704v-296.592c0-18.033-14.671-32.704-32.704-32.704z"/><path d="m132 368c47.421 0 86-38.579 86-86s-38.579-86-86-86-86 38.579-86 86 38.579 86 86 86zm0-156c38.598 0 70 31.402 70 70s-31.402 70-70 70-70-31.402-70-70 31.402-70 70-70z"/><path d="m132 318c4.418 0 8-3.582 8-8s-3.582-8-8-8c-11.028 0-20-8.972-20-20s8.972-20 20-20 20 8.972 20 20c0 4.418 3.582 8 8 8s8-3.582 8-8c0-19.851-16.149-36-36-36s-36 16.149-36 36 16.149 36 36 36z"/><path d="m348 318c19.851 0 36-16.149 36-36s-16.149-36-36-36c-4.418 0-8 3.582-8 8s3.582 8 8 8c11.028 0 20 8.972 20 20s-8.972 20-20 20-20-8.972-20-20c0-4.418-3.582-8-8-8s-8 3.582-8 8c0 19.851 16.149 36 36 36z"/><path d="m262 282c0 47.421 38.579 86 86 86s86-38.579 86-86-38.579-86-86-86-86 38.579-86 86zm86-70c38.598 0 70 31.402 70 70s-31.402 70-70 70-70-31.402-70-70 31.402-70 70-70z"/><path d="m325 174c4.418 0 8-3.582 8-8s-3.582-8-8-8h-10.451c-4.418 0-8 3.582-8 8s3.582 8 8 8z"/><path d="m273.903 158h-118.903c-4.418 0-8 3.582-8 8s3.582 8 8 8h118.903c4.418 0 8-3.582 8-8s-3.582-8-8-8z"/></g></svg>