<?xml version="1.0" encoding="iso-8859-1"?>
<!-- Generator: Adobe Illustrator 19.0.0, SVG Export Plug-In . SVG Version: 6.00 Build 0)  -->
<svg version="1.1" id="Layer_1" xmlns="http://www.w3.org/2000/svg" xmlns:xlink="http://www.w3.org/1999/xlink" x="0px" y="0px"
	 viewBox="0 0 512 512" style="enable-background:new 0 0 512 512;" xml:space="preserve">
<g>
	<g>
		<path d="M511.997,54.594c0.002-14.583-5.677-28.294-15.988-38.604c-10.31-10.312-24.015-15.989-38.593-15.989
			c-0.003,0-0.007,0-0.01,0L217.138,0c-14.582,0-28.291,5.678-38.6,15.988c-10.311,10.312-15.99,24.021-15.989,38.601v0.002
			c-0.001,14.564,5.682,28.269,16.001,38.588c10.318,10.319,24.022,16.002,38.589,16.002h108.476L15.965,418.829
			c-21.284,21.286-21.284,55.918,0.001,77.202C26.263,506.327,39.972,511.999,54.568,512c14.594,0,28.303-5.672,38.6-15.968
			l309.65-309.649V294.86c0,30.098,24.487,54.587,54.589,54.591c14.582,0,28.292-5.68,38.603-15.99
			c10.31-10.311,15.988-24.019,15.988-38.6L511.997,54.594z M481.584,319.036c-6.458,6.459-15.045,10.016-24.177,10.016
			c-18.853-0.002-34.192-15.342-34.192-34.193v-133.1c0-4.126-2.486-7.844-6.296-9.423c-3.811-1.577-8.199-0.706-11.115,2.211
			L78.743,481.607c-6.444,6.445-15.03,9.994-24.176,9.994c-9.146,0-17.732-3.55-24.176-9.995
			c-6.446-6.444-9.994-15.031-9.995-24.176c0-9.147,3.55-17.733,9.994-24.177l327.06-327.061c2.916-2.917,3.789-7.304,2.211-11.115
			c-1.579-3.81-5.297-6.296-9.423-6.296h-133.1c-9.117,0-17.699-3.561-24.164-10.027c-6.467-6.465-10.028-15.048-10.027-24.164
			v-0.002c-0.001-9.131,3.555-17.718,10.015-24.176c6.457-6.458,15.043-10.014,24.176-10.014L457.407,20.4c0.002,0,0.003,0,0.006,0
			c9.129,0,17.714,3.555,24.171,10.014c6.458,6.458,10.015,15.044,10.013,24.178l0.001,240.269
			C491.597,303.993,488.041,312.579,481.584,319.036z"/>
	</g>
</g>
<g>
	<g>
		<path d="M317.301,40.486h-3.833c-5.632,0-10.199,4.567-10.199,10.199s4.567,10.199,10.199,10.199h3.833
			c5.632,0,10.199-4.567,10.199-10.199S322.933,40.486,317.301,40.486z"/>
	</g>
</g>
<g>
	<g>
		<path d="M455.626,40.486H354.708c-5.632,0-10.199,4.567-10.199,10.199s4.567,10.199,10.199,10.199h100.918
			c5.632,0,10.199-4.567,10.199-10.199S461.258,40.486,455.626,40.486z"/>
	</g>
</g>
<g>
</g>
<g>
</g>
<g>
</g>
<g>
</g>
<g>
</g>
<g>
</g>
<g>
</g>
<g>
</g>
<g>
</g>
<g>
</g>
<g>
</g>
<g>
</g>
<g>
</g>
<g>
</g>
<g>
</g>
</svg>
